{"title":"Karwaan 2018 Hindi 720p WEB-DL x264 [MW]","magnet":"magnet:?xt=urn:btih:046dc5825b4e4d6f7188fa63afe74b686189c751&dn=Karwaan+2018+Hindi+720p+WEB-DL+x264+%5BMW%5D&tr=udp%3A%2F%2Ftracker.leechers-paradise.org%3A6969&tr=udp%3A%2F%2Fzer0day.ch%3A1337&tr=udp%3A%2F%2Fopen.demonii.com%3A1337&tr=udp%3A%2F%2Ftracker.coppersurfer.tk%3A6969&tr=udp%3A%2F%2Fexodus.desync.com%3A6969","uploader":"MFreaky","categoryP":"video","categoryS":"hd___movies","size":"1125255091","seeders":"0","leechers":"0","description":" <a href=\"https://pichub.site/image/E9kd4\" rel=\"nofollow\" target=\"_NEW\">https://pichub.site/image/E9kd4</a> <a href=\"\nhttps://pichub.site/image/E9y3y\" rel=\"nofollow\" target=\"_NEW\">\nhttps://pichub.site/image/E9y3y</a> <a href=\"\nhttps://pichub.site/image/E9hab\" rel=\"nofollow\" target=\"_NEW\">\nhttps://pichub.site/image/E9hab</a> <a href=\"\nhttps://pichub.site/image/E9zqT\" rel=\"nofollow\" target=\"_NEW\">\nhttps://pichub.site/image/E9zqT</a> <a href=\"\nhttps://pichub.site/image/E9i80\" rel=\"nofollow\" target=\"_NEW\">\nhttps://pichub.site/image/E9i80</a>\r\n\r\nIMDB <a href=\"\nhttps://www.imdb.com/title/tt7919680/\" rel=\"nofollow\" target=\"_NEW\">\nhttps://www.imdb.com/title/tt7919680/</a>\r\n\r\nVideo\r\nFormat                                   : AVC\r\nFormat/Info                              : Advanced Video Codec\r\nFormat profile                           : High@L4.1\r\nFormat settings                          : CABAC / 4 Ref Frames\r\nFormat settings, CABAC                   : Yes\r\nFormat settings, RefFrames               : 4 frames\r\nCodec ID                                 : V_MPEG4/ISO/AVC\r\nDuration                                 : 1 h 53 min\r\nBit rate                                 : 1 200 kb/s\r\nWidth                                    : 1 280 pixels\r\nHeight                                   : 540 pixels\r\nDisplay aspect ratio                     : 2.40:1\r\nFrame rate mode                          : Constant\r\nFrame rate                               : 25.000 FPS\r\nColor space                              : YUV\r\nChroma subsampling                       : 4:2:0\r\nBit depth                                : 8 bits\r\nBits/(Pixel*Frame)                       : 0.069\r\nStream size                              : 967 MiB (90%)\r\nWriting library                          : x264 core 155 r2901 7d0ff22\r\n\r\nAudio\r\nFormat                                   : AAC\r\nFormat/Info                              : Advanced Audio Codec\r\nFormat profile                           : LC\r\nCodec ID                                 : A_AAC-2\r\nDuration                                 : 1 h 53 min\r\nBit rate                                 : 129 kb/s\r\nChannel(s)                               : 2 channels\r\nChannel positions                        : Front: L R\r\nSampling rate                            : 48.0 kHz\r\nFrame rate                               : 46.875 FPS (1024 SPF)\r\nStream size                              : 105 MiB (10%)\r\nLanguage                                 : Hindi","last_updated":"2018-10-01T12:01:07.387Z","parsed":{"xt":"urn:btih:046dc5825b4e4d6f7188fa63afe74b686189c751","dn":"Karwaan 2018 Hindi 720p WEB-DL x264 [MW]","tr":["udp://exodus.desync.com:6969","udp://open.demonii.com:1337","udp://tracker.coppersurfer.tk:6969","udp://tracker.leechers-paradise.org:6969","udp://zer0day.ch:1337"],"infoHash":"046dc5825b4e4d6f7188fa63afe74b686189c751","infoHashBuffer":{"type":"Buffer","data":[4,109,197,130,91,78,77,111,113,136,250,99,175,231,75,104,97,137,199,81]},"name":"Karwaan 2018 Hindi 720p WEB-DL x264 [MW]","announce":["udp://exodus.desync.com:6969","udp://open.demonii.com:1337","udp://tracker.coppersurfer.tk:6969","udp://tracker.leechers-paradise.org:6969","udp://zer0day.ch:1337"],"urlList":[]}}